<?xml version="1.0" encoding="UTF-8"?>
<svg width="973px" height="921px" viewBox="0 0 973 921" version="1.1" xmlns="http://www.w3.org/2000/svg" xmlns:xlink="http://www.w3.org/1999/xlink">
    <!-- Generator: Sketch 54.1 (76490) - https://sketchapp.com -->
    <title>gvi</title>
    <desc>Created with Sketch.</desc>
    <g id="Page-1" stroke="none" stroke-width="1" fill="none" fill-rule="evenodd">
        <g id="Artboard" transform="translate(-48.000000, -224.000000)" fill="#1D86BE">
            <g id="gvi" transform="translate(48.000000, 224.000000)">
                <path d="M767,117.381586 C711.346632,86.856803 647.457398,69.5 579.517637,69.5 C363.753891,69.5 188.842816,244.556663 188.842816,460.5 C188.842816,676.443337 363.753891,851.5 579.517637,851.5 C647.457398,851.5 711.346632,834.143197 767,803.618414 C685.580108,876.610734 578.028087,921 460.11702,921 C206.001407,921 0,714.827127 0,460.5 C0,206.172873 206.001407,0 460.11702,0 C578.028087,0 685.580108,44.3892658 767,117.381586 Z" id="Combined-Shape"></path>
                <path d="M227,422.792277 C298.472521,439.899454 350.805854,448.893345 384,449.773949 C455.106918,451.660336 522.49758,436.877349 577,411.799744 C704.78613,353.002905 797.07563,251.976859 819.681623,223.635769 C821.665411,221.148697 822,220.929401 824,217.931438 C826,214.933474 825.779401,212.484741 824.433125,209.44119 C823.17074,206.587292 820.720855,203.577702 817.429943,200.502442 C810.754014,194.263983 803.088464,187.18053 795,181.955876 C786.911536,176.731221 757,159.97081 741,151.976241 C725,143.981672 659,117 669,117 C679,117 774.31093,141.890957 828,162.968774 C863.792714,177.020652 896.792714,193.676004 927,212.934832 C881.666667,292.214311 819.666667,362.166793 741,422.792277 C699.735223,454.593511 650.674385,480.803724 593.817487,501.422915 C583.649094,505.110489 519.212426,529.73404 437,538.713532 C358.675188,547.268407 263,540.712175 255,538.713532 C249.558799,537.354156 246.457057,536.299851 244.001565,535.393896 C240.376833,534.056549 238.576907,532.486971 235,527.721 C231,522.391287 228.333333,487.415046 227,422.792277 Z" id="Path"></path>
                <path d="M270,620.622328 C391.2902,614.628244 486.256428,600.64205 554.898685,578.663744 C641.497948,550.255963 685.852115,524.716992 736.833985,488.752492 C787.815855,452.787991 823.803057,418.821518 871.772887,366.881058 C883.073676,353.869784 879.78315,358.880683 902.774973,328.910266 C918.102856,308.929988 936.762887,278.626566 958.755066,238 C966.085792,289.282714 970.08437,324.91421 970.7508,344.894488 C973.749733,391.848142 973.749733,389.850114 970.7508,429.810671 C964.752933,498.742631 939.76182,586.655855 934.763598,586.655855 C929.765375,586.655855 935.215664,455.660117 934.763598,446.793907 C934.311531,437.927697 930.927393,431.805607 926.766442,429.810671 C922.60549,427.815734 919.837951,427.414112 913.815381,431.755375 C911.682749,433.292644 908.002613,436.640465 902.774973,441.798838 C900.365798,445.26671 887.703635,457.920887 864.788482,479.761366 C830.415753,512.522086 824.802702,518.722909 794.813367,544.697271 C764.824031,570.671632 716.841095,606.636133 631.871312,648.594717 C632.397289,648.594717 562.666009,679.286508 487.922503,697.023478 C420.6125,712.996443 348.027456,716.63509 339.975116,709.534566 C328.645811,699.544427 305.320773,669.907014 270,620.622328 Z" id="Path-2"></path>
            </g>
        </g>
    </g>
</svg>